<svg xmlns="http://www.w3.org/2000/svg" version="1.1" xmlns:xlink="http://www.w3.org/1999/xlink" xmlns:svgjs="http://svgjs.dev/svgjs" width="1000" height="1000" viewBox="0 0 1000 1000"><rect width="1000" height="1000" fill="#000000"></rect><g transform="matrix(0.7,0,0,0.7,149.57575757575756,454.8310301959246)"><svg viewBox="0 0 396 51" data-background-color="#ffffff" preserveAspectRatio="xMidYMid meet" height="128" width="1000" xmlns="http://www.w3.org/2000/svg" xmlns:xlink="http://www.w3.org/1999/xlink"><defs></defs><g id="tight-bounds" transform="matrix(1,0,0,1,0.2400000000000091,0.2100162947303943)"><svg viewBox="0 0 395.52 50.57996741053922" height="50.57996741053922" width="395.52"><g><svg viewBox="0 0 678.2312859718546 86.73370838709677" height="50.57996741053922" width="395.52"><g><rect width="6.138930193639163" height="68.41377513408094" x="411.5904978891077" y="9.159966626507916" fill="#ffffff" opacity="1" stroke-width="0" stroke="transparent" fill-opacity="1" class="rect-o-0" data-fill-palette-color="primary" rx="1%" id="o-0" data-palette-color="#113f67"></rect></g><g transform="matrix(1,0,0,1,0,9.330150146741943)"><svg viewBox="0 0 395.52 68.07340809361288" height="68.07340809361288" width="395.52"><g><svg viewBox="0 0 395.52 68.07340809361288" height="68.07340809361288" width="395.52"><g><svg viewBox="0 0 395.52 68.07340809361288" height="68.07340809361288" width="395.52"><g transform="matrix(1,0,0,1,0,0)"><svg width="395.52" viewBox="4.599999904632568 -34.79999923706055 205.08999633789062 35.29999923706055" height="68.07340809361288" data-palette-color="#113f67"><g class="undefined-text-0" data-fill-palette-color="primary" id="text-0"><path d="M4.6-34.3L27.1-34.3 26.45-29.85 9.5-29.85 9.5-19.75 24.85-19.75 24.85-15.3 9.5-15.3 9.5-4.45 26.75-4.45 27.45 0 4.6 0 4.6-34.3ZM43.25-34.3L48.65-34.3 62.05 0 56.75 0 53.85-7.45 37.45-7.45 34.6 0 29.85 0 43.25-34.3ZM52.15-11.9L45.85-28.4 45.55-28.4 39.2-11.9 52.15-11.9ZM77.95-34.8Q83.59-34.8 86.82-32.3 90.05-29.8 90.05-25.2L90.05-25.2 90.05-24.6 85.15-24.6 85.15-25.35Q85.15-27.75 83.2-29.05 81.25-30.35 78.05-30.35L78.05-30.35Q74.5-30.35 72.52-29.18 70.55-28 70.55-25.8L70.55-25.8Q70.55-24.15 71.67-23.1 72.8-22.05 74.47-21.45 76.15-20.85 79.09-20.1L79.09-20.1Q82.9-19.1 85.25-18.15 87.59-17.2 89.27-15.3 90.95-13.4 90.95-10.25L90.95-10.25Q90.95-4.65 87.52-2.08 84.09 0.5 77.9 0.5L77.9 0.5Q71.7 0.5 68.27-2.13 64.84-4.75 64.84-9.75L64.84-9.75 64.9-10.75 69.8-10.75 69.75-9.7Q69.75-6.8 71.92-5.38 74.09-3.95 77.95-3.95L77.95-3.95Q81.7-3.95 83.87-5.33 86.05-6.7 86.05-9.1L86.05-9.1Q86.05-11 84.87-12.18 83.7-13.35 81.92-14 80.15-14.65 77.09-15.45L77.09-15.45Q73.34-16.45 71.09-17.35 68.84-18.25 67.25-20.13 65.65-22 65.65-25.05L65.65-25.05Q65.65-30 69-32.4 72.34-34.8 77.95-34.8L77.95-34.8ZM117.34-34.3L122.39-34.3 110.34-13.25 110.34 0 105.44 0 105.44-13.25 93.34-34.3 98.94-34.3 108.09-18.35 108.29-18.35 117.34-34.3ZM126.79-34.3L131.69-34.3 131.69-4.45 147.44-4.45 148.14 0 126.79 0 126.79-34.3ZM153.59-34.3L176.09-34.3 175.44-29.85 158.49-29.85 158.49-19.75 173.84-19.75 173.84-15.3 158.49-15.3 158.49-4.45 175.74-4.45 176.44 0 153.59 0 153.59-34.3ZM208.59-34.25L197.24-18.05 209.69 0 203.79 0 194.29-13.8 184.54 0 179.09 0 191.59-17.75 180.24-34.25 186.14-34.25 194.54-22Q197.29-25.85 200.39-30.35L200.39-30.35 202.44-33.25 203.14-34.25 208.59-34.25Z" fill="#ffffff" data-fill-palette-color="primary"></path></g></svg></g></svg></g></svg></g></svg></g><g transform="matrix(1,0,0,1,433.79992597185463,0)"><svg viewBox="0 0 244.43135999999998 86.73370838709677" height="86.73370838709677" width="244.43135999999998"><g><svg xmlns="http://www.w3.org/2000/svg" data-name="Your Icon" viewBox="34.5 44 31 11" x="0" y="0" height="86.73370838709677" width="244.43135999999998" class="icon-icon-0" data-fill-palette-color="accent" id="icon-0"><path d="M63 50H48a2.5 2.5 0 0 0 0 5H63a2.5 2.5 0 0 0 0-5Z" fill="#ffffff" data-fill-palette-color="accent"></path><circle cx="38" cy="47.5" r="3.5" fill="#ffffff" data-fill-palette-color="accent"></circle></svg></g></svg></g></svg></g></svg><rect width="395.52" height="50.57996741053922" fill="none" stroke="none" visibility="hidden"></rect></g></svg></g></svg>